<svg version="1.1" id="Layer_1" xmlns="http://www.w3.org/2000/svg" xmlns:xlink="http://www.w3.org/1999/xlink" x="0px" y="0px"
	 width="100%" viewBox="0 0 500 500" enable-background="new 0 0 500 500" xml:space="preserve">
<path fill="#000000" opacity="1.000000" stroke="none" 
	d="
M265.000000,501.000000 
	C176.666687,501.000000 88.833374,501.000000 1.000047,501.000000 
	C1.000031,334.333405 1.000031,167.666794 1.000016,1.000137 
	C167.666565,1.000091 334.333130,1.000091 500.999756,1.000046 
	C500.999847,167.666519 500.999847,334.333038 500.999939,500.999786 
	C422.500000,501.000000 344.000000,501.000000 265.000000,501.000000 
M207.500610,271.970917 
	C206.964203,272.298492 206.427795,272.626099 205.432968,273.035217 
	C205.432968,273.035217 205.006607,273.222321 204.353470,273.175262 
	C202.896088,274.447357 201.438705,275.719452 199.477478,277.049988 
	C199.302170,277.324585 199.126877,277.599152 198.296799,278.081909 
	C195.126068,281.028229 189.925598,283.018707 193.189819,289.676880 
	C193.845825,291.116882 194.501816,292.556885 195.017975,294.785583 
	C196.025558,298.162445 197.033142,301.539337 197.986816,304.940704 
	C197.986816,304.940704 198.014282,304.993164 197.990677,305.787811 
	C201.275177,316.410492 204.559677,327.033203 207.844177,337.655884 
	C208.428757,337.557739 209.013321,337.459564 209.597900,337.361389 
	C209.597900,321.935577 209.597900,306.509766 209.597900,289.772125 
	C214.749924,295.566376 216.930923,290.588593 220.398926,288.605896 
	C222.624786,286.806946 225.032623,285.189911 227.044647,283.177216 
	C235.263809,274.955383 235.256348,274.840057 245.340759,280.122345 
	C248.700592,281.882233 251.662643,282.908508 255.543060,281.053101 
	C257.181702,280.269562 259.921722,281.789337 262.161102,282.262177 
	C262.160339,282.886353 262.159546,283.510498 262.158783,284.134674 
	C258.300110,285.829468 254.430695,288.867249 250.585861,288.836365 
	C246.838699,288.806366 243.116699,285.637756 239.122620,283.721924 
	C239.122620,289.569916 239.023071,294.684753 239.192856,299.790649 
	C239.235107,301.061401 239.797318,302.724335 240.717300,303.489471 
	C246.379623,308.198822 254.086975,308.534241 260.028931,304.165314 
	C261.427277,303.137115 262.594360,300.955475 262.732544,299.214417 
	C263.103180,294.543121 262.858978,289.823029 262.858978,284.060852 
	C267.755676,287.591522 271.337708,290.174255 275.063477,292.860626 
	C276.636108,291.891876 278.098724,290.990875 280.250916,289.665100 
	C280.250916,305.912140 280.250916,321.399048 280.250916,336.885956 
	C281.637939,336.187439 282.254242,335.308746 282.552612,334.332855 
	C287.321869,318.735809 292.148926,303.154541 296.643951,287.478241 
	C297.120422,285.816528 296.195160,282.932068 294.891846,281.728088 
	C290.167725,277.364136 284.900482,273.595093 280.041534,269.367828 
	C276.191040,266.017883 272.667938,262.173187 266.351471,269.001068 
	C266.351471,261.874908 266.351471,256.771667 266.351471,250.618454 
	C262.639557,252.992844 260.114319,254.555069 257.644318,256.200226 
	C253.691727,258.832886 249.876938,259.888580 245.536362,256.667664 
	C242.775543,254.619003 239.492035,253.274719 235.999313,251.373047 
	C235.999313,257.903351 235.935654,263.658051 236.026123,269.410309 
	C236.071533,272.297516 235.149277,273.856659 231.401886,272.993378 
	C231.193832,272.990845 230.985764,272.988281 230.617584,272.666687 
	C230.157608,272.772675 229.697632,272.878662 228.538727,272.933502 
	C227.883011,272.270569 227.227310,271.607605 226.461395,270.390594 
	C225.967621,269.961670 225.473846,269.532745 224.621597,268.639313 
	C224.076340,268.457764 223.531067,268.276215 222.510757,267.594208 
	C220.180634,266.427460 217.850525,265.260681 215.350189,264.008698 
	C213.820129,265.390411 212.370544,266.699463 210.381699,268.104340 
	C210.016388,268.511017 209.651062,268.917725 208.816132,269.740448 
	C208.510803,270.470764 208.205475,271.201050 207.973068,271.957703 
	C207.973068,271.957703 207.951538,271.883209 207.500610,271.970917 
M239.376877,86.485901 
	C239.912827,84.284752 240.448792,82.083595 240.984741,79.882439 
	C240.685913,79.723717 240.387070,79.564987 240.088242,79.406265 
	C238.197205,82.301445 236.306152,85.196632 233.951019,88.660751 
	C233.368301,89.241013 232.603531,89.723503 232.231247,90.416763 
	C228.819321,96.770477 225.684921,103.282936 222.053925,109.506592 
	C218.297073,115.945946 218.108765,115.804779 224.396698,119.645615 
	C225.761749,120.479431 226.985779,121.544159 228.567764,122.720398 
	C233.121307,119.323318 237.568069,116.005890 242.316727,112.463242 
	C239.878265,110.261322 237.676178,108.725845 236.115372,106.697006 
	C235.147324,105.438683 234.749298,103.415985 234.814011,101.764549 
	C234.913635,99.222076 235.630280,96.703781 236.788589,93.966774 
	C237.158112,92.640343 237.527634,91.313911 238.091156,89.373833 
	C238.346344,88.579147 238.601532,87.784454 239.376877,86.485901 
M309.713074,138.611725 
	C306.795319,133.891449 302.676849,132.390198 297.143311,132.948074 
	C291.868225,133.479889 286.491425,133.147278 281.167175,132.965256 
	C279.439056,132.906189 277.418457,132.563080 276.075775,131.595123 
	C270.194672,127.355263 264.455475,122.911255 258.774536,118.402977 
	C252.294296,113.260368 249.374039,113.233780 242.976547,118.634727 
	C242.596542,118.955551 242.302246,119.378044 241.921570,119.697891 
	C231.571045,128.394318 220.889679,136.211151 206.114685,133.074020 
	C205.795959,133.006332 205.446915,133.096924 205.117523,133.061844 
	C200.353394,132.554428 195.906464,132.773849 193.134781,137.627060 
	C192.765381,138.273880 191.705948,138.526581 189.842865,139.622513 
	C190.681961,137.611206 190.858948,136.646255 191.400604,135.976013 
	C195.037201,131.476303 193.027817,128.156204 189.670151,124.520439 
	C185.083908,119.554329 181.013000,114.113960 176.689148,108.903473 
	C171.335770,102.452354 165.949585,96.028465 159.511673,88.315872 
	C166.108246,90.380928 166.360565,85.963600 167.881729,83.216774 
	C173.087418,73.816658 178.168167,64.347351 183.296570,54.904430 
	C182.860764,54.581238 182.424973,54.258049 181.989166,53.934860 
	C179.623474,55.610203 177.235840,57.255497 174.895767,58.965912 
	C162.153137,68.279823 149.512222,77.737511 136.611832,86.827126 
	C134.011642,88.659218 134.333862,89.920090 135.667297,91.917297 
	C139.044098,96.975044 142.585236,101.930923 145.779282,107.101357 
	C155.834885,123.379044 165.873245,139.670074 175.640549,156.120850 
	C177.537933,159.316559 179.901703,159.834869 183.006943,159.751434 
	C188.487747,159.604187 194.036606,158.928040 199.427856,159.565399 
	C203.134125,160.003540 205.451736,158.850677 207.795578,156.568069 
	C210.901398,153.543396 214.044769,150.557281 218.204712,146.563004 
	C218.204712,158.605118 218.269409,169.034988 218.075836,179.460037 
	C218.061127,180.252029 216.211075,181.686356 215.219299,181.681839 
	C201.421921,181.619278 187.625275,181.231049 173.828842,181.247696 
	C170.956482,181.251190 168.085709,182.573318 166.144913,183.056183 
	C164.696304,180.215530 163.409088,176.520493 161.172363,173.537384 
	C155.710175,166.252457 149.824997,159.283569 144.060623,152.227905 
	C143.428391,151.454056 142.474075,150.943359 140.662582,149.519379 
	C141.025650,156.106400 139.770508,162.241974 141.923599,166.749557 
	C147.453339,178.326401 154.415298,189.228973 161.037384,200.261429 
	C161.836761,201.593231 164.056030,202.799545 165.635254,202.822464 
	C179.291595,203.020721 192.953186,202.840881 206.610428,203.004959 
	C209.654953,203.041534 210.885330,201.775330 212.054016,199.205612 
	C214.176880,194.537750 216.783478,190.089874 219.549911,184.867279 
	C225.478516,195.718536 230.921249,205.680481 235.841537,216.272644 
	C235.674744,216.488586 235.507965,216.704529 234.749832,216.629059 
	C233.566147,215.862061 232.382462,215.095047 230.485504,213.865860 
	C230.879883,222.186951 231.234283,229.664963 231.588699,237.142975 
	C229.571091,235.765366 228.465134,233.958237 227.658203,232.026199 
	C224.155060,223.638718 222.028580,222.165054 213.027359,222.164444 
	C204.201416,222.163849 195.369492,222.354553 186.552567,222.073486 
	C183.211960,221.967010 181.614761,223.211121 180.034348,225.958679 
	C176.424545,232.234344 172.697006,238.487671 168.459106,244.346298 
	C161.752579,253.617722 160.073196,263.597626 162.648636,274.568085 
	C163.134567,274.467468 163.584503,274.513550 163.734894,274.323090 
	C170.495514,265.760986 177.289627,257.223572 183.892349,248.540680 
	C184.725052,247.445648 184.535324,245.573105 184.842026,243.939819 
	C196.963074,243.939819 209.343292,244.724075 221.563950,243.665802 
	C229.795502,242.953003 236.669495,245.230606 242.994247,249.291794 
	C249.062729,253.188431 253.908401,252.348724 259.713623,248.966507 
	C264.181580,246.363434 269.399506,243.905853 274.413422,243.614883 
	C285.483246,242.972549 296.634247,243.795425 307.753265,243.893402 
	C311.008759,243.922104 314.268005,243.522736 316.477295,243.384949 
	C320.933777,256.922516 332.122833,264.284790 339.493835,274.698944 
	C340.351349,269.970306 340.599487,265.531525 340.259064,261.138306 
	C340.051971,258.465912 339.446045,255.573654 338.139771,253.281357 
	C332.936859,244.151230 327.154602,235.346298 322.102631,226.138016 
	C320.464783,223.152725 318.754211,222.098969 315.604584,222.128326 
	C305.114380,222.226089 294.621613,222.254349 284.132477,222.112015 
	C281.330078,222.073990 279.537994,222.791138 278.221130,225.417816 
	C276.220947,229.407486 273.825989,233.199265 271.140533,237.872391 
	C271.140533,229.427994 271.140533,222.130386 271.140533,214.378220 
	C269.410797,215.358032 268.020081,216.145798 266.213379,216.346451 
	C266.066437,216.156860 265.919525,215.967285 265.877869,215.082397 
	C271.316895,205.226105 276.755890,195.369812 282.620239,184.742737 
	C285.576080,190.604065 287.869446,195.537170 290.564819,200.239883 
	C291.286194,201.498550 293.224579,202.797928 294.621490,202.817032 
	C308.618378,203.008316 322.619812,203.007324 336.617004,202.830307 
	C338.054138,202.812134 340.026978,201.649017 340.806915,200.418579 
	C345.042114,193.737137 348.857758,186.790817 353.051300,180.081619 
	C358.742096,170.977081 363.453583,161.717117 359.835938,150.102585 
	C354.886871,156.089294 349.601318,161.740677 345.218109,168.021759 
	C341.751007,172.990021 335.325043,176.395844 336.369904,183.243790 
	C334.015167,182.480545 331.889191,181.196381 329.765045,181.199402 
	C315.810822,181.219208 301.856384,181.484604 287.903534,181.751083 
	C285.154114,181.803574 283.624603,181.183960 283.685272,177.952530 
	C283.854156,168.957886 283.752167,159.958344 283.805847,150.961029 
	C283.811890,149.947418 284.129364,148.935654 284.398529,147.360611 
	C288.365479,150.933670 291.615662,154.312546 295.342346,157.040527 
	C297.421265,158.562363 300.261230,159.672653 302.812836,159.791016 
	C308.260590,160.043686 313.760437,159.184692 319.207001,159.446289 
	C323.100769,159.633286 325.177521,158.190948 327.132202,155.001389 
	C340.006958,133.992859 353.021149,113.069160 366.115509,92.196617 
	C367.748077,89.594261 367.309814,88.224403 364.946472,86.543602 
	C355.023529,79.486389 345.235168,72.240265 335.335754,65.149498 
	C330.552429,61.723274 325.632507,58.487797 320.774414,55.165951 
	C320.416290,55.531406 320.058197,55.896862 319.700073,56.262318 
	C320.335907,57.706844 320.881012,59.199837 321.622528,60.587914 
	C325.960907,68.709343 330.202484,76.888786 334.811188,84.855179 
	C336.012238,86.931229 338.405975,88.317299 340.686066,90.420799 
	C332.229279,100.654007 323.184845,112.016441 313.645447,122.946899 
	C309.519623,127.674347 306.674286,131.884705 310.838257,138.281464 
	C310.672180,138.498154 310.506104,138.714828 309.713074,138.611725 
M237.918198,337.332703 
	C231.234940,353.839447 224.662369,370.392670 217.766678,386.810211 
	C216.521713,389.774261 216.600250,391.761536 218.358780,394.412537 
	C227.161102,407.682098 235.728958,421.106964 244.420715,434.450195 
	C247.445755,439.094147 250.589722,443.660583 253.918900,448.619202 
	C255.662338,446.598663 256.907013,445.453827 257.796906,444.079315 
	C267.851410,428.549042 277.782410,412.938416 287.901825,397.450806 
	C291.699371,391.638733 291.673157,389.319397 287.747101,383.544952 
	C282.749023,376.193726 278.104614,368.602844 273.255890,361.148987 
	C271.035004,357.734863 268.690338,354.401245 266.401794,351.031128 
	C265.979370,351.246857 265.556946,351.462585 265.134521,351.678345 
	C265.134521,358.633179 265.425720,365.604279 265.038300,372.537476 
	C264.751434,377.670898 266.252045,381.370667 270.387482,384.525665 
	C272.828491,386.387970 274.460602,389.310577 276.438110,391.733856 
	C274.190918,392.449890 272.198425,392.519867 271.089905,393.545380 
	C267.934021,396.464783 265.051910,399.698212 262.220337,402.946075 
	C257.412170,408.461243 252.725220,414.082092 247.987320,419.658508 
	C247.454742,419.587524 246.922150,419.516510 246.389572,419.445526 
	C250.344345,412.066254 249.851486,405.643341 243.492447,400.440918 
	C242.606125,399.715790 241.832535,398.844452 241.053925,397.997437 
	C236.979431,393.564911 232.920135,389.118439 228.123062,383.876373 
	C230.208832,384.054565 231.041229,384.004730 231.805115,384.209961 
	C238.242798,385.939484 238.182129,385.936523 240.134109,379.389191 
	C243.290802,368.800995 246.518402,358.233917 249.739868,347.665161 
	C252.069305,340.022888 251.545395,338.814209 243.673203,336.294556 
	C242.076675,335.783539 240.085632,336.505188 237.918198,337.332703 
M260.484985,310.603424 
	C259.093109,311.487701 257.585114,312.233154 256.331116,313.282227 
	C252.542786,316.451508 249.024170,315.701111 245.369370,312.997192 
	C243.571198,311.666840 241.485809,310.724762 238.994522,309.300659 
	C238.994522,312.382111 238.978485,314.695374 238.999039,317.008301 
	C239.019699,319.332275 239.059113,321.656433 239.121368,323.979645 
	C239.295151,330.465698 248.295700,335.527588 254.436844,333.159119 
	C260.952423,330.646240 264.562012,327.007019 263.059601,319.542175 
	C262.546051,316.990417 263.070496,314.242096 262.903412,311.597290 
	C262.872345,311.105438 261.803772,310.679138 260.484985,310.603424 
M281.042511,117.720413 
	C281.568115,116.297737 282.968506,114.376495 282.485382,113.528778 
	C277.075531,104.036865 271.407806,94.690582 265.708710,85.366722 
	C265.063507,84.311172 263.801605,83.632568 261.770721,81.856636 
	C262.998199,86.712151 263.846283,90.000351 264.659363,93.297180 
	C266.321472,100.036301 269.972809,107.191628 260.873566,111.742783 
	C260.718048,111.820572 260.784485,112.342201 260.728821,112.813690 
	C261.869995,113.846954 262.981903,115.060684 264.291748,115.997681 
	C267.239502,118.106339 270.067841,120.949165 273.373840,121.774513 
	C275.320374,122.260468 278.088348,119.456070 281.042511,117.720413 
z"/>
<path fill="#E2D4A1" opacity="1.000000" stroke="none" 
	d="
M236.363983,215.642426 
	C230.921249,205.680481 225.478516,195.718536 219.549911,184.867279 
	C216.783478,190.089874 214.176880,194.537750 212.054016,199.205612 
	C210.885330,201.775330 209.654953,203.041534 206.610428,203.004959 
	C192.953186,202.840881 179.291595,203.020721 165.635254,202.822464 
	C164.056030,202.799545 161.836761,201.593231 161.037384,200.261429 
	C154.415298,189.228973 147.453339,178.326401 141.923599,166.749557 
	C139.770508,162.241974 141.025650,156.106400 140.662582,149.519379 
	C142.474075,150.943359 143.428391,151.454056 144.060623,152.227905 
	C149.824997,159.283569 155.710175,166.252457 161.172363,173.537384 
	C163.409088,176.520493 164.696304,180.215530 166.144913,183.056183 
	C168.085709,182.573318 170.956482,181.251190 173.828842,181.247696 
	C187.625275,181.231049 201.421921,181.619278 215.219299,181.681839 
	C216.211075,181.686356 218.061127,180.252029 218.075836,179.460037 
	C218.269409,169.034988 218.204712,158.605118 218.204712,146.563004 
	C214.044769,150.557281 210.901398,153.543396 207.795578,156.568069 
	C205.451736,158.850677 203.134125,160.003540 199.427856,159.565399 
	C194.036606,158.928040 188.487747,159.604187 183.006943,159.751434 
	C179.901703,159.834869 177.537933,159.316559 175.640549,156.120850 
	C165.873245,139.670074 155.834885,123.379044 145.779282,107.101357 
	C142.585236,101.930923 139.044098,96.975044 135.667297,91.917297 
	C134.333862,89.920090 134.011642,88.659218 136.611832,86.827126 
	C149.512222,77.737511 162.153137,68.279823 174.895767,58.965912 
	C177.235840,57.255497 179.623474,55.610203 181.989166,53.934860 
	C182.424973,54.258049 182.860764,54.581238 183.296570,54.904430 
	C178.168167,64.347351 173.087418,73.816658 167.881729,83.216774 
	C166.360565,85.963600 166.108246,90.380928 159.511673,88.315872 
	C165.949585,96.028465 171.335770,102.452354 176.689148,108.903473 
	C181.013000,114.113960 185.083908,119.554329 189.670151,124.520439 
	C193.027817,128.156204 195.037201,131.476303 191.400604,135.976013 
	C190.858948,136.646255 190.681961,137.611206 189.842865,139.622513 
	C191.705948,138.526581 192.765381,138.273880 193.134781,137.627060 
	C195.906464,132.773849 200.353394,132.554428 205.117523,133.061844 
	C205.446915,133.096924 205.795959,133.006332 206.114685,133.074020 
	C220.889679,136.211151 231.571045,128.394318 241.921570,119.697891 
	C242.302246,119.378044 242.596542,118.955551 242.976547,118.634727 
	C249.374039,113.233780 252.294296,113.260368 258.774536,118.402977 
	C264.455475,122.911255 270.194672,127.355263 276.075775,131.595123 
	C277.418457,132.563080 279.439056,132.906189 281.167175,132.965256 
	C286.491425,133.147278 291.868225,133.479889 297.143311,132.948074 
	C302.676849,132.390198 306.795319,133.891449 310.235840,139.098053 
	C311.259033,139.737122 311.759521,139.889862 312.259979,140.042618 
	C311.959900,139.245071 311.659821,138.447525 311.359741,137.649994 
	C306.674286,131.884705 309.519623,127.674347 313.645447,122.946899 
	C323.184845,112.016441 332.229279,100.654007 340.686066,90.420799 
	C338.405975,88.317299 336.012238,86.931229 334.811188,84.855179 
	C330.202484,76.888786 325.960907,68.709343 321.622528,60.587914 
	C320.881012,59.199837 320.335907,57.706844 319.700073,56.262318 
	C320.058197,55.896862 320.416290,55.531406 320.774414,55.165951 
	C325.632507,58.487797 330.552429,61.723274 335.335754,65.149498 
	C345.235168,72.240265 355.023529,79.486389 364.946472,86.543602 
	C367.309814,88.224403 367.748077,89.594261 366.115509,92.196617 
	C353.021149,113.069160 340.006958,133.992859 327.132202,155.001389 
	C325.177521,158.190948 323.100769,159.633286 319.207001,159.446289 
	C313.760437,159.184692 308.260590,160.043686 302.812836,159.791016 
	C300.261230,159.672653 297.421265,158.562363 295.342346,157.040527 
	C291.615662,154.312546 288.365479,150.933670 284.398529,147.360611 
	C284.129364,148.935654 283.811890,149.947418 283.805847,150.961029 
	C283.752167,159.958344 283.854156,168.957886 283.685272,177.952530 
	C283.624603,181.183960 285.154114,181.803574 287.903534,181.751083 
	C301.856384,181.484604 315.810822,181.219208 329.765045,181.199402 
	C331.889191,181.196381 334.015167,182.480545 336.369904,183.243790 
	C335.325043,176.395844 341.751007,172.990021 345.218109,168.021759 
	C349.601318,161.740677 354.886871,156.089294 359.835938,150.102585 
	C363.453583,161.717117 358.742096,170.977081 353.051300,180.081619 
	C348.857758,186.790817 345.042114,193.737137 340.806915,200.418579 
	C340.026978,201.649017 338.054138,202.812134 336.617004,202.830307 
	C322.619812,203.007324 308.618378,203.008316 294.621490,202.817032 
	C293.224579,202.797928 291.286194,201.498550 290.564819,200.239883 
	C287.869446,195.537170 285.576080,190.604065 282.620239,184.742737 
	C276.755890,195.369812 271.316895,205.226105 265.556702,215.572708 
	C264.940216,216.698975 264.644958,217.334946 264.349701,217.970901 
	C264.554352,218.112106 264.759003,218.253311 264.963654,218.394516 
	C265.518890,217.907532 266.074127,217.420563 266.629364,216.933563 
	C268.020081,216.145798 269.410797,215.358032 271.140533,214.378220 
	C271.140533,222.130386 271.140533,229.427994 271.140533,237.872391 
	C273.825989,233.199265 276.220947,229.407486 278.221130,225.417816 
	C279.537994,222.791138 281.330078,222.073990 284.132477,222.112015 
	C294.621613,222.254349 305.114380,222.226089 315.604584,222.128326 
	C318.754211,222.098969 320.464783,223.152725 322.102631,226.138016 
	C327.154602,235.346298 332.936859,244.151230 338.139771,253.281357 
	C339.446045,255.573654 340.051971,258.465912 340.259064,261.138306 
	C340.599487,265.531525 340.351349,269.970306 339.493835,274.698944 
	C332.122833,264.284790 320.933777,256.922516 316.477295,243.384949 
	C314.268005,243.522736 311.008759,243.922104 307.753265,243.893402 
	C296.634247,243.795425 285.483246,242.972549 274.413422,243.614883 
	C269.399506,243.905853 264.181580,246.363434 259.713623,248.966507 
	C253.908401,252.348724 249.062729,253.188431 242.994247,249.291794 
	C236.669495,245.230606 229.795502,242.953003 221.563950,243.665802 
	C209.343292,244.724075 196.963074,243.939819 184.842026,243.939819 
	C184.535324,245.573105 184.725052,247.445648 183.892349,248.540680 
	C177.289627,257.223572 170.495514,265.760986 163.734894,274.323090 
	C163.584503,274.513550 163.134567,274.467468 162.648636,274.568085 
	C160.073196,263.597626 161.752579,253.617722 168.459106,244.346298 
	C172.697006,238.487671 176.424545,232.234344 180.034348,225.958679 
	C181.614761,223.211121 183.211960,221.967010 186.552567,222.073486 
	C195.369492,222.354553 204.201416,222.163849 213.027359,222.164444 
	C222.028580,222.165054 224.155060,223.638718 227.658203,232.026199 
	C228.465134,233.958237 229.571091,235.765366 231.588699,237.142975 
	C231.234283,229.664963 230.879883,222.186951 230.485504,213.865860 
	C232.382462,215.095047 233.566147,215.862061 235.205521,217.036255 
	C236.221436,217.663055 236.781677,217.882660 237.341904,218.102264 
	C237.015930,217.282318 236.689941,216.462372 236.363983,215.642426 
M236.670303,178.254929 
	C236.784332,172.105331 237.038025,165.954163 236.968307,159.806656 
	C236.912292,154.865738 236.464691,149.929260 236.146622,144.298981 
	C238.224030,141.077911 240.301437,137.856842 242.378845,134.635773 
	C239.028427,135.818848 236.639923,138.002045 233.929413,139.658234 
	C230.906601,141.505219 229.740631,143.747986 229.887375,147.364136 
	C230.183563,154.663086 230.722397,162.086090 229.765045,169.271927 
	C228.161591,181.307251 235.585846,189.397858 241.238525,198.435349 
	C239.583694,191.946976 237.928848,185.458603 236.670303,178.254929 
M189.824692,139.886078 
	C190.272614,139.601624 190.720551,139.317184 191.168488,139.032745 
	C190.573334,139.078323 189.978165,139.123901 189.824692,139.886078 
z"/>
<path fill="#E0D2A1" opacity="1.000000" stroke="none" 
	d="
M238.097321,336.995636 
	C240.085632,336.505188 242.076675,335.783539 243.673203,336.294556 
	C251.545395,338.814209 252.069305,340.022888 249.739868,347.665161 
	C246.518402,358.233917 243.290802,368.800995 240.134109,379.389191 
	C238.182129,385.936523 238.242798,385.939484 231.805115,384.209961 
	C231.041229,384.004730 230.208832,384.054565 228.123062,383.876373 
	C232.920135,389.118439 236.979431,393.564911 241.053925,397.997437 
	C241.832535,398.844452 242.606125,399.715790 243.492447,400.440918 
	C249.851486,405.643341 250.344345,412.066254 246.389572,419.445526 
	C246.922150,419.516510 247.454742,419.587524 247.987320,419.658508 
	C252.725220,414.082092 257.412170,408.461243 262.220337,402.946075 
	C265.051910,399.698212 267.934021,396.464783 271.089905,393.545380 
	C272.198425,392.519867 274.190918,392.449890 276.438110,391.733856 
	C274.460602,389.310577 272.828491,386.387970 270.387482,384.525665 
	C266.252045,381.370667 264.751434,377.670898 265.038300,372.537476 
	C265.425720,365.604279 265.134521,358.633179 265.134521,351.678345 
	C265.556946,351.462585 265.979370,351.246857 266.401794,351.031128 
	C268.690338,354.401245 271.035004,357.734863 273.255890,361.148987 
	C278.104614,368.602844 282.749023,376.193726 287.747101,383.544952 
	C291.673157,389.319397 291.699371,391.638733 287.901825,397.450806 
	C277.782410,412.938416 267.851410,428.549042 257.796906,444.079315 
	C256.907013,445.453827 255.662338,446.598663 253.918900,448.619202 
	C250.589722,443.660583 247.445755,439.094147 244.420715,434.450195 
	C235.728958,421.106964 227.161102,407.682098 218.358780,394.412537 
	C216.600250,391.761536 216.521713,389.774261 217.766678,386.810211 
	C224.662369,370.392670 231.234940,353.839447 238.097321,336.995636 
z"/>
<path fill="#DFD2A0" opacity="1.000000" stroke="none" 
	d="
M231.995682,273.185883 
	C235.149277,273.856659 236.071533,272.297516 236.026123,269.410309 
	C235.935654,263.658051 235.999313,257.903351 235.999313,251.373047 
	C239.492035,253.274719 242.775543,254.619003 245.536362,256.667664 
	C249.876938,259.888580 253.691727,258.832886 257.644318,256.200226 
	C260.114319,254.555069 262.639557,252.992844 266.351471,250.618454 
	C266.351471,256.771667 266.351471,261.874908 266.351471,269.001068 
	C272.667938,262.173187 276.191040,266.017883 280.041534,269.367828 
	C284.900482,273.595093 290.167725,277.364136 294.891846,281.728088 
	C296.195160,282.932068 297.120422,285.816528 296.643951,287.478241 
	C292.148926,303.154541 287.321869,318.735809 282.552612,334.332855 
	C282.254242,335.308746 281.637939,336.187439 280.250916,336.885956 
	C280.250916,321.399048 280.250916,305.912140 280.250916,289.665100 
	C278.098724,290.990875 276.636108,291.891876 275.063477,292.860626 
	C271.337708,290.174255 267.755676,287.591522 262.858978,284.060852 
	C262.858978,289.823029 263.103180,294.543121 262.732544,299.214417 
	C262.594360,300.955475 261.427277,303.137115 260.028931,304.165314 
	C254.086975,308.534241 246.379623,308.198822 240.717300,303.489471 
	C239.797318,302.724335 239.235107,301.061401 239.192856,299.790649 
	C239.023071,294.684753 239.122620,289.569916 239.122620,283.721924 
	C243.116699,285.637756 246.838699,288.806366 250.585861,288.836365 
	C254.430695,288.867249 258.300110,285.829468 262.158783,284.134674 
	C262.159546,283.510498 262.160339,282.886353 262.161102,282.262177 
	C259.921722,281.789337 257.181702,280.269562 255.543060,281.053101 
	C251.662643,282.908508 248.700592,281.882233 245.340759,280.122345 
	C235.256348,274.840057 235.263809,274.955383 227.044647,283.177216 
	C225.032623,285.189911 222.624786,286.806946 219.907410,288.667084 
	C218.954620,288.541107 218.493347,288.353973 218.173889,287.854797 
	C220.810532,285.512451 223.543106,283.707214 225.735596,281.390778 
	C228.087036,278.906403 229.930511,275.941223 231.995682,273.185883 
z"/>
<path fill="#E4D4A2" opacity="1.000000" stroke="none" 
	d="
M231.698792,273.089630 
	C229.930511,275.941223 228.087036,278.906403 225.735596,281.390778 
	C223.543106,283.707214 220.810532,285.512451 217.844177,288.025970 
	C216.506790,288.979553 215.575958,289.946136 214.785263,289.842590 
	C207.820221,288.930634 208.113770,293.649170 208.108688,298.198029 
	C208.100937,305.141449 208.085831,312.084839 207.728165,318.927399 
	C205.850998,317.592865 204.319504,316.359192 202.548370,314.843445 
	C201.837021,312.883148 201.550583,311.121399 200.842239,309.549835 
	C200.114059,307.934265 198.974060,306.504333 198.014282,304.993164 
	C198.014282,304.993164 197.986816,304.940704 198.026001,304.543396 
	C198.043655,300.764496 198.022125,297.382843 198.365967,293.942932 
	C203.175079,293.412048 203.349991,289.777008 204.427658,286.810760 
	C204.027039,286.439972 203.626434,286.069153 203.225830,285.698364 
	C201.621063,287.346466 200.016281,288.994598 198.446442,290.606842 
	C196.991882,289.753693 195.496933,288.876862 194.001282,287.666260 
	C194.000763,286.887543 194.000931,286.442535 194.296478,285.937927 
	C195.392242,284.584503 196.192627,283.290710 197.212006,281.734558 
	C197.937836,280.272644 198.444687,279.073181 198.951553,277.873718 
	C199.126877,277.599152 199.302170,277.324585 200.041168,277.161743 
	C204.864639,278.957306 203.983170,275.054932 205.006607,273.222321 
	C205.006607,273.222321 205.432968,273.035217 205.965729,272.961975 
	C206.982834,272.553558 207.467178,272.218384 207.951538,271.883209 
	C207.951538,271.883209 207.973068,271.957703 208.290726,271.853821 
	C208.834167,270.941437 209.059967,270.132935 209.285736,269.324402 
	C209.651062,268.917725 210.016388,268.511017 211.055405,268.043579 
	C215.481339,268.020081 219.233582,268.057373 222.985809,268.094696 
	C223.531067,268.276215 224.076340,268.457764 224.913544,269.090820 
	C225.660858,270.009796 226.116226,270.477234 226.571594,270.944672 
	C227.227310,271.607605 227.883011,272.270569 229.143494,272.977844 
	C230.091400,273.010071 230.434555,272.997925 230.777710,272.985779 
	C230.985764,272.988281 231.193832,272.990845 231.698792,273.089630 
z"/>
<path fill="#DFD2A1" opacity="1.000000" stroke="none" 
	d="
M260.849487,310.413025 
	C261.803772,310.679138 262.872345,311.105438 262.903412,311.597290 
	C263.070496,314.242096 262.546051,316.990417 263.059601,319.542175 
	C264.562012,327.007019 260.952423,330.646240 254.436844,333.159119 
	C248.295700,335.527588 239.295151,330.465698 239.121368,323.979645 
	C239.059113,321.656433 239.019699,319.332275 238.999039,317.008301 
	C238.978485,314.695374 238.994522,312.382111 238.994522,309.300659 
	C241.485809,310.724762 243.571198,311.666840 245.369370,312.997192 
	C249.024170,315.701111 252.542786,316.451508 256.331116,313.282227 
	C257.585114,312.233154 259.093109,311.487701 260.849487,310.413025 
z"/>
<path fill="#DED1A2" opacity="1.000000" stroke="none" 
	d="
M280.764709,117.925972 
	C278.088348,119.456070 275.320374,122.260468 273.373840,121.774513 
	C270.067841,120.949165 267.239502,118.106339 264.291748,115.997681 
	C262.981903,115.060684 261.869995,113.846954 260.728821,112.813690 
	C260.784485,112.342201 260.718048,111.820572 260.873566,111.742783 
	C269.972809,107.191628 266.321472,100.036301 264.659363,93.297180 
	C263.846283,90.000351 262.998199,86.712151 261.770721,81.856636 
	C263.801605,83.632568 265.063507,84.311172 265.708710,85.366722 
	C271.407806,94.690582 277.075531,104.036865 282.485382,113.528778 
	C282.968506,114.376495 281.568115,116.297737 280.764709,117.925972 
z"/>
<path fill="#DED1A3" opacity="1.000000" stroke="none" 
	d="
M236.085144,94.175232 
	C235.630280,96.703781 234.913635,99.222076 234.814011,101.764549 
	C234.749298,103.415985 235.147324,105.438683 236.115372,106.697006 
	C237.676178,108.725845 239.878265,110.261322 242.316727,112.463242 
	C237.568069,116.005890 233.121307,119.323318 228.567764,122.720398 
	C226.985779,121.544159 225.761749,120.479431 224.396698,119.645615 
	C218.108765,115.804779 218.297073,115.945946 222.053925,109.506592 
	C225.684921,103.282936 228.819321,96.770477 232.231247,90.416763 
	C232.603531,89.723503 233.368301,89.241013 234.510422,88.344864 
	C236.332123,87.682571 237.594421,87.336174 238.856720,86.989777 
	C238.601532,87.784454 238.346344,88.579147 237.808044,89.946602 
	C237.045013,91.737991 236.565079,92.956612 236.085144,94.175232 
z"/>
<path fill="#C1BA94" opacity="1.000000" stroke="none" 
	d="
M208.073853,319.028259 
	C208.085831,312.084839 208.100937,305.141449 208.108688,298.198029 
	C208.113770,293.649170 207.820221,288.930634 214.785263,289.842590 
	C215.575958,289.946136 216.506790,288.979553 217.702362,288.338013 
	C218.493347,288.353973 218.954620,288.541107 219.644897,288.830994 
	C216.930923,290.588593 214.749924,295.566376 209.597900,289.772125 
	C209.597900,306.509766 209.597900,321.935577 209.597900,337.361389 
	C209.013321,337.459564 208.428757,337.557739 207.844177,337.655884 
	C204.559677,327.033203 201.275177,316.410492 198.002472,305.390503 
	C198.974060,306.504333 200.114059,307.934265 200.842239,309.549835 
	C201.550583,311.121399 201.837021,312.883148 202.582306,315.150543 
	C202.886063,316.153168 202.916229,316.566620 202.975937,317.282959 
	C203.304352,318.102875 203.603226,318.619843 203.913361,319.531372 
	C204.590866,322.253021 205.257111,324.580200 205.923355,326.907349 
	C206.640182,326.854248 207.357010,326.801117 208.073837,326.748016 
	C208.073837,324.174774 208.073837,321.601501 208.073853,319.028259 
z"/>
<path fill="#E2D4A1" opacity="1.000000" stroke="none" 
	d="
M194.001984,288.000000 
	C195.496933,288.876862 196.991882,289.753693 198.446442,290.606842 
	C200.016281,288.994598 201.621063,287.346466 203.225830,285.698364 
	C203.626434,286.069153 204.027039,286.439972 204.427658,286.810760 
	C203.349991,289.777008 203.175079,293.412048 198.010590,293.942627 
	C196.579193,293.999390 195.868515,293.998138 195.157822,293.996887 
	C194.501816,292.556885 193.845825,291.116882 193.348969,289.195862 
	C193.720444,288.509521 193.885071,288.271240 194.001984,288.000000 
z"/>
<path fill="#BAB59A" opacity="1.000000" stroke="none" 
	d="
M239.116791,86.737839 
	C237.594421,87.336174 236.332123,87.682571 234.742462,88.060394 
	C236.306152,85.196632 238.197205,82.301445 240.088242,79.406265 
	C240.387070,79.564987 240.685913,79.723717 240.984741,79.882439 
	C240.448792,82.083595 239.912827,84.284752 239.116791,86.737839 
z"/>
<path fill="#DCD0A6" opacity="1.000000" stroke="none" 
	d="
M222.748291,267.844452 
	C219.233582,268.057373 215.481339,268.020081 211.325027,267.995667 
	C212.370544,266.699463 213.820129,265.390411 215.350189,264.008698 
	C217.850525,265.260681 220.180634,266.427460 222.748291,267.844452 
z"/>
<path fill="#DFD2A0" opacity="1.000000" stroke="none" 
	d="
M194.001282,287.666260 
	C193.885071,288.271240 193.720444,288.509521 193.335785,288.848877 
	C189.925598,283.018707 195.126068,281.028229 198.624176,277.977814 
	C198.444687,279.073181 197.937836,280.272644 196.886688,281.810944 
	C195.561966,283.432343 194.781525,284.714966 194.001083,285.997559 
	C194.000931,286.442535 194.000763,286.887543 194.001282,287.666260 
z"/>
<path fill="#DFD2A0" opacity="1.000000" stroke="none" 
	d="
M195.087891,294.391235 
	C195.868515,293.998138 196.579193,293.999390 197.645248,294.000916 
	C198.022125,297.382843 198.043655,300.764496 198.052948,304.531158 
	C197.033142,301.539337 196.025558,298.162445 195.087891,294.391235 
z"/>
<path fill="#DFD2A0" opacity="1.000000" stroke="none" 
	d="
M204.680038,273.198792 
	C203.983170,275.054932 204.864639,278.957306 200.293091,277.132507 
	C201.438705,275.719452 202.896088,274.447357 204.680038,273.198792 
z"/>
<path fill="#BAB59A" opacity="1.000000" stroke="none" 
	d="
M236.436874,94.070999 
	C236.565079,92.956612 237.045013,91.737991 237.711060,90.253426 
	C237.527634,91.313911 237.158112,92.640343 236.436874,94.070999 
z"/>
<path fill="#DFD2A0" opacity="1.000000" stroke="none" 
	d="
M209.050934,269.532410 
	C209.059967,270.132935 208.834167,270.941437 208.254272,271.840668 
	C208.205475,271.201050 208.510803,270.470764 209.050934,269.532410 
z"/>
<path fill="#DFD2A0" opacity="1.000000" stroke="none" 
	d="
M230.697647,272.826233 
	C230.434555,272.997925 230.091400,273.010071 229.492950,273.003418 
	C229.697632,272.878662 230.157608,272.772675 230.697647,272.826233 
z"/>
<path fill="#DFD2A0" opacity="1.000000" stroke="none" 
	d="
M226.516495,270.667633 
	C226.116226,270.477234 225.660858,270.009796 225.092789,269.323059 
	C225.473846,269.532745 225.967621,269.961670 226.516495,270.667633 
z"/>
<path fill="#DFD2A0" opacity="1.000000" stroke="none" 
	d="
M207.726074,271.927063 
	C207.467178,272.218384 206.982834,272.553558 206.194946,272.921204 
	C206.427795,272.626099 206.964203,272.298492 207.726074,271.927063 
z"/>
<path fill="#040403" opacity="1.000000" stroke="none" 
	d="
M236.274017,178.970230 
	C237.928848,185.458603 239.583694,191.946976 241.238525,198.435349 
	C235.585846,189.397858 228.161591,181.307251 229.765045,169.271927 
	C230.722397,162.086090 230.183563,154.663086 229.887375,147.364136 
	C229.740631,143.747986 230.906601,141.505219 233.929413,139.658234 
	C236.639923,138.002045 239.028427,135.818848 242.378845,134.635773 
	C240.301437,137.856842 238.224030,141.077911 236.085480,145.109253 
	C236.107559,156.936432 236.190781,167.953323 236.274017,178.970230 
z"/>
<path fill="#E1D7BD" opacity="1.000000" stroke="none" 
	d="
M236.472168,178.612579 
	C236.190781,167.953323 236.107559,156.936432 236.107574,145.455170 
	C236.464691,149.929260 236.912292,154.865738 236.968307,159.806656 
	C237.038025,165.954163 236.784332,172.105331 236.472168,178.612579 
z"/>
<path fill="#000000" opacity="1.000000" stroke="none" 
	d="
M266.421387,216.640015 
	C266.074127,217.420563 265.518890,217.907532 264.963654,218.394516 
	C264.759003,218.253311 264.554352,218.112106 264.349701,217.970901 
	C264.644958,217.334946 264.940216,216.698975 265.504059,215.920349 
	C265.919525,215.967285 266.066437,216.156860 266.421387,216.640015 
z"/>
<path fill="#000000" opacity="1.000000" stroke="none" 
	d="
M236.102753,215.957535 
	C236.689941,216.462372 237.015930,217.282318 237.341904,218.102264 
	C236.781677,217.882660 236.221436,217.663055 235.501190,217.181976 
	C235.507965,216.704529 235.674744,216.488586 236.102753,215.957535 
z"/>
<path fill="#000000" opacity="1.000000" stroke="none" 
	d="
M189.603851,139.527786 
	C189.978165,139.123901 190.573334,139.078323 191.168488,139.032745 
	C190.720551,139.317184 190.272614,139.601624 189.603851,139.527786 
z"/>
<path fill="#000000" opacity="1.000000" stroke="none" 
	d="
M311.098999,137.965729 
	C311.659821,138.447525 311.959900,139.245071 312.259979,140.042618 
	C311.759521,139.889862 311.259033,139.737122 310.549316,139.257935 
	C310.506104,138.714828 310.672180,138.498154 311.098999,137.965729 
z"/>
<path fill="#E2D4A1" opacity="1.000000" stroke="none" 
	d="
M202.946396,316.980072 
	C202.916229,316.566620 202.886063,316.153168 202.821945,315.432617 
	C204.319504,316.359192 205.850998,317.592865 207.728149,318.927399 
	C208.073837,321.601501 208.073837,324.174774 208.073837,326.748016 
	C207.357010,326.801117 206.640182,326.854248 205.923355,326.907349 
	C205.257111,324.580200 204.590866,322.253021 203.905029,319.219360 
	C203.572403,318.001953 203.259399,317.490997 202.946396,316.980072 
z"/>
<path fill="#E2D4A1" opacity="1.000000" stroke="none" 
	d="
M194.296478,285.937927 
	C194.781525,284.714966 195.561966,283.432343 196.667694,282.073364 
	C196.192627,283.290710 195.392242,284.584503 194.296478,285.937927 
z"/>
<path fill="#DFD2A0" opacity="1.000000" stroke="none" 
	d="
M202.975937,317.282959 
	C203.259399,317.490997 203.572403,318.001953 203.893753,318.824860 
	C203.603226,318.619843 203.304352,318.102875 202.975937,317.282959 
z"/>
</svg>